HIERARCHY
ROOT Hips
{
	OFFSET 0.000000 0.000000 0.000000
	CHANNELS 6 Xposition Yposition Zposition Xrotation Yrotation Zrotation
	JOINT Thigh.L
	{
		OFFSET 0.054395 0.030780 -0.092084
		CHANNELS 3 Xrotation Yrotation Zrotation
		JOINT Shin.L
		{
			OFFSET 0.053177 0.015764 -0.409799
			CHANNELS 3 Xrotation Yrotation Zrotation
			JOINT Foot.L
			{
				OFFSET -0.041671 0.033051 -0.430293
				CHANNELS 3 Xrotation Yrotation Zrotation
				JOINT Toe.L
				{
					OFFSET 0.044760 -0.119186 -0.063553
					CHANNELS 3 Xrotation Yrotation Zrotation
					End Site
					{
						OFFSET 0.000000 0.050000 0.000000
					}
				}
			}
		}
	}
	JOINT Thigh.R
	{
		OFFSET -0.059682 0.028056 -0.102457
		CHANNELS 3 Xrotation Yrotation Zrotation
		JOINT Shin.R
		{
			OFFSET -0.042532 0.021237 -0.393540
			CHANNELS 3 Xrotation Yrotation Zrotation
			JOINT Foot.R
			{
				OFFSET 0.015683 0.021542 -0.439162
				CHANNELS 3 Xrotation Yrotation Zrotation
				JOINT Toe.R
				{
					OFFSET -0.037066 -0.119951 -0.063533
					CHANNELS 3 Xrotation Yrotation Zrotation
					End Site
					{
						OFFSET 0.000000 0.050000 0.000000
					}
				}
			}
		}
	}
	JOINT Spine
	{
		OFFSET -0.002085 0.019517 0.109418
		CHANNELS 3 Xrotation Yrotation Zrotation
		JOINT Spine.2
		{
			OFFSET 0.006757 0.002878 0.135171
			CHANNELS 3 Xrotation Yrotation Zrotation
			JOINT Chest
			{
				OFFSET -0.010396 -0.023072 0.049502
				CHANNELS 3 Xrotation Yrotation Zrotation
				JOINT Neck
				{
					OFFSET -0.009440 0.028907 0.163773
					CHANNELS 3 Xrotation Yrotation Zrotation
					JOINT Head
					{
						OFFSET 0.022282 -0.022396 0.165823
						CHANNELS 3 Xrotation Yrotation Zrotation
						End Site
						{
							OFFSET 0.000000 0.050000 0.000000
						}
					}
				}
				JOINT Clavicle.L
				{
					OFFSET 0.043289 0.008235 0.083729
					CHANNELS 3 Xrotation Yrotation Zrotation
					JOINT UpperArm.L
					{
						OFFSET 0.106487 0.014930 0.061904
						CHANNELS 3 Xrotation Yrotation Zrotation
						JOINT ForeArm.L
						{
							OFFSET 0.263988 0.035111 -0.075507
							CHANNELS 3 Xrotation Yrotation Zrotation
							JOINT Hand.L
							{
								OFFSET 0.263045 0.006349 0.021211
								CHANNELS 3 Xrotation Yrotation Zrotation
								JOINT Thumb1.L
								{
									OFFSET 0.154577 0.002886 0.009642
									CHANNELS 3 Xrotation Yrotation Zrotation
									JOINT Thumb2.L
									{
										OFFSET 0.029894 0.000722 0.002411
										CHANNELS 3 Xrotation Yrotation Zrotation
										End Site
										{
											OFFSET 0.024912 0.000601 0.002009
										}
									}
								}
								JOINT Index1.L
								{
									OFFSET 0.137577 0.002886 0.009642
									CHANNELS 3 Xrotation Yrotation Zrotation
									JOINT Index2.L
									{
										OFFSET 0.029894 0.000722 0.002411
										CHANNELS 3 Xrotation Yrotation Zrotation
										JOINT Index3.L
										{
											OFFSET 0.021922 0.000529 0.001768
											CHANNELS 3 Xrotation Yrotation Zrotation
											End Site
											{
												OFFSET 0.017937 0.000433 0.001446
											}
										}
									}
								}
								JOINT Middle1.L
								{
									OFFSET 0.119577 0.002886 0.009642
									CHANNELS 3 Xrotation Yrotation Zrotation
									JOINT Middle2.L
									{
										OFFSET 0.030891 0.000746 0.002491
										CHANNELS 3 Xrotation Yrotation Zrotation
										JOINT Middle3.L
										{
											OFFSET 0.021922 0.000529 0.001768
											CHANNELS 3 Xrotation Yrotation Zrotation
											End Site
											{
												OFFSET 0.017937 0.000433 0.001446
											}
										}
									}
								}
								JOINT Ring1.L
								{
									OFFSET 0.101577 0.002886 0.009642
									CHANNELS 3 Xrotation Yrotation Zrotation
									JOINT Ring2.L
									{
										OFFSET 0.028898 0.000698 0.002330
										CHANNELS 3 Xrotation Yrotation Zrotation
										JOINT Ring3.L
										{
											OFFSET 0.019930 0.000481 0.001607
											CHANNELS 3 Xrotation Yrotation Zrotation
											End Site
											{
												OFFSET 0.016940 0.000409 0.001366
											}
										}
									}
								}
								JOINT Pinky1.L
								{
									OFFSET 0.085577 0.002886 0.009642
									CHANNELS 3 Xrotation Yrotation Zrotation
									JOINT Pinky2.L
									{
										OFFSET 0.023915 0.000577 0.001928
										CHANNELS 3 Xrotation Yrotation Zrotation
										JOINT Pinky3.L
										{
											OFFSET 0.016940 0.000409 0.001366
											CHANNELS 3 Xrotation Yrotation Zrotation
											End Site
											{
												OFFSET 0.013951 0.000337 0.001125
											}
										}
									}
								}
							}
						}
					}
				}
				JOINT Clavicle.R
				{
					OFFSET -0.041379 0.014322 0.083237
					CHANNELS 3 Xrotation Yrotation Zrotation
					JOINT UpperArm.R
					{
						OFFSET -0.091922 0.009813 0.057419
						CHANNELS 3 Xrotation Yrotation Zrotation
						JOINT ForeArm.R
						{
							OFFSET -0.280042 0.022554 -0.042721
							CHANNELS 3 Xrotation Yrotation Zrotation
							JOINT Hand.R
							{
								OFFSET -0.259770 0.018899 -0.003447
								CHANNELS 3 Xrotation Yrotation Zrotation
								JOINT Thumb1.R
								{
									OFFSET -0.154673 0.008707 -0.001588
									CHANNELS 3 Xrotation Yrotation Zrotation
									JOINT Thumb2.R
									{
										OFFSET -0.029918 0.002177 -0.000397
										CHANNELS 3 Xrotation Yrotation Zrotation
										End Site
										{
											OFFSET -0.024932 0.001814 -0.000331
										}
									}
								}
								JOINT Index1.R
								{
									OFFSET -0.137673 0.008707 -0.001588
									CHANNELS 3 Xrotation Yrotation Zrotation
									JOINT Index2.R
									{
										OFFSET -0.029918 0.002177 -0.000397
										CHANNELS 3 Xrotation Yrotation Zrotation
										JOINT Index3.R
										{
											OFFSET -0.021940 0.001596 -0.000291
											CHANNELS 3 Xrotation Yrotation Zrotation
											End Site
											{
												OFFSET -0.017951 0.001306 -0.000238
											}
										}
									}
								}
								JOINT Middle1.R
								{
									OFFSET -0.119673 0.008707 -0.001588
									CHANNELS 3 Xrotation Yrotation Zrotation
									JOINT Middle2.R
									{
										OFFSET -0.030916 0.002249 -0.000410
										CHANNELS 3 Xrotation Yrotation Zrotation
										JOINT Middle3.R
										{
											OFFSET -0.021940 0.001596 -0.000291
											CHANNELS 3 Xrotation Yrotation Zrotation
											End Site
											{
												OFFSET -0.017951 0.001306 -0.000238
											}
										}
									}
								}
								JOINT Ring1.R
								{
									OFFSET -0.101673 0.008707 -0.001588
									CHANNELS 3 Xrotation Yrotation Zrotation
									JOINT Ring2.R
									{
										OFFSET -0.028921 0.002104 -0.000384
										CHANNELS 3 Xrotation Yrotation Zrotation
										JOINT Ring3.R
										{
											OFFSET -0.019946 0.001451 -0.000265
											CHANNELS 3 Xrotation Yrotation Zrotation
											End Site
											{
												OFFSET -0.016954 0.001233 -0.000225
											}
										}
									}
								}
								JOINT Pinky1.R
								{
									OFFSET -0.085673 0.008707 -0.001588
									CHANNELS 3 Xrotation Yrotation Zrotation
									JOINT Pinky2.R
									{
										OFFSET -0.023935 0.001741 -0.000318
										CHANNELS 3 Xrotation Yrotation Zrotation
										JOINT Pinky3.R
										{
											OFFSET -0.016954 0.001233 -0.000225
											CHANNELS 3 Xrotation Yrotation Zrotation
											End Site
											{
												OFFSET -0.013962 0.001016 -0.000185
											}
										}
									}
								}
							}
						}
					}
				}
			}
		}
	}
}
MOTION
Frames: 4
Frame Time: 0.04166667
-0.005081 -0.037689 1.075299 -5.250280 1.311701 1.109724 3.245285 1.257444 -1.264968 5.538844 0.145656 -9.979088 -6.435219 0.419614 8.124828 2.784497 -4.029938 0.736161 0.793673 -1.666640 1.239730 7.122111 0.523121 4.909765 -4.850683 -2.962424 -3.970837 0.777486 -2.936657 -1.587482 4.440059 -0.357890 2.388079 3.754826 -3.548532 -2.487057 -4.102023 3.324285 0.119167 9.141290 -0.455428 3.181349 14.830308 1.250119 1.827538 5.112569 21.006867 3.598125 18.122420 48.642496 -22.248542 19.733975 -2.170568 -19.847138 5.450494 1.321240 -6.749542 0.000000 0.000000 0.000000 0.000000 0.000000 0.000000 0.000000 0.000000 0.000000 0.000000 0.000000 0.000000 0.000000 0.000000 0.000000 0.000000 0.000000 0.000000 0.000000 0.000000 0.000000 0.000000 0.000000 0.000000 0.000000 0.000000 0.000000 0.000000 0.000000 0.000000 0.000000 0.000000 0.000000 0.000000 0.000000 0.000000 0.000000 0.000000 0.000000 0.000000 0.000000 0.000000 1.686404 -14.501180 -0.207536 32.587505 -52.468045 29.685841 13.400810 3.116794 25.443668 -1.257865 -5.095023 2.466586 0.000000 0.000000 0.000000 0.000000 0.000000 0.000000 0.000000 0.000000 0.000000 0.000000 0.000000 0.000000 0.000000 0.000000 0.000000 0.000000 0.000000 0.000000 0.000000 0.000000 0.000000 0.000000 0.000000 0.000000 0.000000 0.000000 0.000000 0.000000 0.000000 0.000000 0.000000 0.000000 0.000000 0.000000 0.000000 0.000000 0.000000 0.000000 0.000000 0.000000 0.000000 0.000000
-0.005404 -0.038137 1.075260 -5.213495 1.325641 0.962653 3.098089 1.329412 -1.329285 5.671985 0.093073 -9.953052 -6.416122 0.335918 8.272979 2.740882 -4.089893 0.742941 0.644932 -1.660668 1.269888 7.249795 0.571536 4.947274 -4.847618 -2.988562 -3.924543 0.788121 -2.973696 -1.594626 4.417914 -0.381526 2.411040 3.585097 -3.438967 -2.448752 -3.922026 3.338873 0.114359 9.146047 -0.473023 3.214624 14.941510 1.373273 1.670634 5.011487 21.005688 3.624474 18.098775 48.615611 -22.224875 19.764517 -2.115413 -19.701461 5.492020 1.372231 -6.592807 0.000000 0.000000 0.000000 0.000000 0.000000 0.000000 0.000000 0.000000 0.000000 0.000000 0.000000 0.000000 0.000000 0.000000 0.000000 0.000000 0.000000 0.000000 0.000000 0.000000 0.000000 0.000000 0.000000 0.000000 0.000000 0.000000 0.000000 0.000000 0.000000 0.000000 0.000000 0.000000 0.000000 0.000000 0.000000 0.000000 0.000000 0.000000 0.000000 0.000000 0.000000 0.000000 1.554337 -14.408220 -0.173822 32.723464 -52.582843 29.852695 13.491089 3.105014 25.343795 -1.327931 -4.951382 2.348178 0.000000 0.000000 0.000000 0.000000 0.000000 0.000000 0.000000 0.000000 0.000000 0.000000 0.000000 0.000000 0.000000 0.000000 0.000000 0.000000 0.000000 0.000000 0.000000 0.000000 0.000000 0.000000 0.000000 0.000000 0.000000 0.000000 0.000000 0.000000 0.000000 0.000000 0.000000 0.000000 0.000000 0.000000 0.000000 0.000000 0.000000 0.000000 0.000000 0.000000 0.000000 0.000000
-0.004647 -0.037364 1.075188 -5.132380 1.281941 0.941521 3.075689 1.363085 -1.348726 5.591331 0.072042 -9.915386 -6.388734 0.349391 8.249858 2.739486 -4.135338 0.762574 0.582332 -1.644559 1.264044 7.268944 0.588185 4.973839 -4.864612 -2.946301 -3.943641 0.810803 -3.016854 -1.624073 4.392045 -0.416306 2.423732 3.470109 -3.386102 -2.448836 -3.806521 3.336519 0.095128 9.190402 -0.493828 3.252813 15.013331 1.423423 1.686010 4.963111 20.971488 3.665646 18.051279 48.673276 -22.170054 19.704698 -2.056667 -19.550930 5.502828 1.440433 -6.525998 0.000000 0.000000 0.000000 0.000000 0.000000 0.000000 0.000000 0.000000 0.000000 0.000000 0.000000 0.000000 0.000000 0.000000 0.000000 0.000000 0.000000 0.000000 0.000000 0.000000 0.000000 0.000000 0.000000 0.000000 0.000000 0.000000 0.000000 0.000000 0.000000 0.000000 0.000000 0.000000 0.000000 0.000000 0.000000 0.000000 0.000000 0.000000 0.000000 0.000000 0.000000 0.000000 1.476044 -14.342300 -0.195274 32.864760 -52.719044 29.946773 13.527964 3.158239 25.336054 -1.276443 -4.965883 2.262628 0.000000 0.000000 0.000000 0.000000 0.000000 0.000000 0.000000 0.000000 0.000000 0.000000 0.000000 0.000000 0.000000 0.000000 0.000000 0.000000 0.000000 0.000000 0.000000 0.000000 0.000000 0.000000 0.000000 0.000000 0.000000 0.000000 0.000000 0.000000 0.000000 0.000000 0.000000 0.000000 0.000000 0.000000 0.000000 0.000000 0.000000 0.000000 0.000000 0.000000 0.000000 0.000000
-0.004063 -0.037093 1.075149 -5.109948 1.249621 0.938631 3.074244 1.364705 -1.335892 5.571048 0.086761 -9.861706 -6.382948 0.378583 8.198455 2.726792 -4.151643 0.777659 0.579764 -1.635674 1.291799 7.286456 0.591905 4.989716 -4.873995 -2.919562 -3.964818 0.816720 -3.057419 -1.635431 4.377571 -0.423440 2.426598 3.419638 -3.357583 -2.448080 -3.729653 3.322988 0.085756 9.195637 -0.481599 3.278765 15.030271 1.460633 1.645838 4.938809 20.944788 3.657124 18.035558 48.701272 -22.119405 19.738271 -2.051797 -19.507748 5.604907 1.448900 -6.529071 0.000000 0.000000 0.000000 0.000000 0.000000 0.000000 0.000000 0.000000 0.000000 0.000000 0.000000 0.000000 0.000000 0.000000 0.000000 0.000000 0.000000 0.000000 0.000000 0.000000 0.000000 0.000000 0.000000 0.000000 0.000000 0.000000 0.000000 0.000000 0.000000 0.000000 0.000000 0.000000 0.000000 0.000000 0.000000 0.000000 0.000000 0.000000 0.000000 0.000000 0.000000 0.000000 1.432864 -14.319732 -0.175695 32.921603 -52.757702 29.975815 13.603974 3.158369 25.350242 -1.209672 -5.013011 2.230228 0.000000 0.000000 0.000000 0.000000 0.000000 0.000000 0.000000 0.000000 0.000000 0.000000 0.000000 0.000000 0.000000 0.000000 0.000000 0.000000 0.000000 0.000000 0.000000 0.000000 0.000000 0.000000 0.000000 0.000000 0.000000 0.000000 0.000000 0.000000 0.000000 0.000000 0.000000 0.000000 0.000000 0.000000 0.000000 0.000000 0.000000 0.000000 0.000000 0.000000 0.000000 0.000000
